<?xml version="1.0" encoding="utf-8"?>
<!-- Generator: Adobe Illustrator 24.1.2, SVG Export Plug-In . SVG Version: 6.00 Build 0)  -->
<svg version="1.1" id="Layer_1" xmlns="http://www.w3.org/2000/svg" xmlns:xlink="http://www.w3.org/1999/xlink" x="0px" y="0px"
	 viewBox="0 0 3300 2200" style="enable-background:new 0 0 3300 2200;" xml:space="preserve">
<style type="text/css">
	.st0{fill:#FFFFFF;}
	.st1{fill:none;stroke:#000000;stroke-width:0.5;}
	.st2{font-family:'Arial-BoldMT';}
	.st3{font-size:12px;}
	.st4{font-family:'ArialMT';}
	.st5{opacity:0.4;fill:#00AEEF;enable-background:new    ;}
	.st6{fill:#27AAE1;}
	.st7{fill:none;stroke:#27AAE1;stroke-width:0.577;}
</style>
<g id="Notes">
	<rect id="artboard" class="st0" width="3300" height="2200"/>
	<line class="st1" x1="263" y1="292" x2="3036" y2="292"/>
	<text transform="matrix(1 0 0 1 263 322)" class="st2 st3">Weight/Scale Variations</text>
	<text transform="matrix(1 0 0 1 536.0362 322)" class="st4 st3">Ultralight</text>
	<text transform="matrix(1 0 0 1 844.7501 322)" class="st4 st3">Thin</text>
	<text transform="matrix(1 0 0 1 1140.1193 322)" class="st4 st3">Light</text>
	<text transform="matrix(1 0 0 1 1428.8282 322)" class="st4 st3">Regular</text>
	<text transform="matrix(1 0 0 1 1725.2202 322)" class="st4 st3">Medium</text>
	<text transform="matrix(1 0 0 1 2018.2563 322)" class="st4 st3">Semibold</text>
	<text transform="matrix(1 0 0 1 2327.9712 322)" class="st4 st3">Bold</text>
	<text transform="matrix(1 0 0 1 2619.6831 322)" class="st4 st3">Heavy</text>
	<text transform="matrix(1 0 0 1 2918.728 322)" class="st4 st3">Black</text>
	<line class="st1" x1="263" y1="1903" x2="3036" y2="1903"/>
	<g transform="matrix(1 0 0 1 263 1933)">
		<path d="M9.2,0.8c4.3,0,7.9-3.6,7.9-7.9c0-4.3-3.6-7.9-7.9-7.9c-4.3,0-7.9,3.6-7.9,7.9C1.4-2.7,5,0.8,9.2,0.8z M9.2-0.7
			c-3.5,0-6.4-2.8-6.4-6.4c0-3.6,2.8-6.4,6.4-6.4c3.6,0,6.4,2.8,6.4,6.4C15.7-3.5,12.8-0.7,9.2-0.7z M9.2-3.4c0.5,0,0.7-0.3,0.7-0.8
			v-2.1h2.2C12.7-6.3,13-6.6,13-7c0-0.5-0.3-0.7-0.8-0.7H10V-10c0-0.5-0.3-0.8-0.7-0.8S8.5-10.5,8.5-10v2.2H6.3
			C5.8-7.8,5.4-7.5,5.4-7c0,0.5,0.4,0.7,0.8,0.7h2.2v2.1C8.5-3.8,8.8-3.4,9.2-3.4z"/>
	</g>
	<g transform="matrix(1 0 0 1 281.506 1933)">
		<path d="M11.7,2.9c5.4,0,10-4.5,10-10c0-5.4-4.5-10-10-10c-5.4,0-10,4.5-10,10C1.7-1.6,6.3,2.9,11.7,2.9z M11.7,1.2
			c-4.6,0-8.3-3.7-8.3-8.3c0-4.6,3.7-8.3,8.3-8.3c4.6,0,8.3,3.7,8.3,8.3C20-2.4,16.3,1.2,11.7,1.2z M11.7-2.4c0.5,0,0.8-0.4,0.8-0.9
			v-2.9h3.1c0.5,0,0.9-0.3,0.9-0.8c0-0.5-0.4-0.8-0.9-0.8h-3.1v-3.1c0-0.6-0.3-0.9-0.8-0.9c-0.5,0-0.8,0.4-0.8,0.9v3.1h-3
			C7.3-7.9,6.9-7.6,6.9-7c0,0.5,0.4,0.8,0.9,0.8h3v2.9C10.9-2.8,11.2-2.4,11.7-2.4z"/>
	</g>
	<g transform="matrix(1 0 0 1 304.924 1933)">
		<path d="M15,5.7c7,0,12.7-5.8,12.7-12.7c0-7-5.8-12.7-12.7-12.7C8-19.8,2.3-14,2.3-7C2.3-0.1,8,5.7,15,5.7z M15,3.9
			C8.9,3.9,4.1-1,4.1-7c0-6,4.8-10.9,10.9-10.9c6,0,10.9,4.9,10.9,10.9C25.9-1,21,3.9,15,3.9z M15-1.1c0.6,0,0.9-0.4,0.9-1v-4.1h4.2
			c0.6,0,1-0.3,1-0.9c0-0.6-0.4-0.9-1-0.9h-4.2v-4.2c0-0.6-0.4-1-0.9-1c-0.6,0-0.9,0.4-0.9,1v4.2H9.8c-0.6,0-1,0.3-1,0.9
			c0,0.6,0.4,0.9,1,0.9h4.2v4.1C14.1-1.5,14.4-1.1,15-1.1z"/>
	</g>
	<text transform="matrix(1 0 0 1 263 1953)" class="st2 st3">Design Variations</text>
	<text transform="matrix(1 0 0 1 263 1971)" class="st4 st3">Symbols are supported in up to nine weights and three scales.</text>
	<text transform="matrix(1 0 0 1 263 1989)" class="st4 st3">For optimal layout with text and other symbols, vertically align</text>
	<text transform="matrix(1 0 0 1 263 2007)" class="st4 st3">symbols with the adjacent text.</text>
	<rect x="776" y="1919" class="st5" width="3" height="14"/>
	<g transform="matrix(1 0 0 1 779 1933)">
		<path d="M10.5,0h1.8L7.2-14.1H5.4L0.2,0h1.8l1.4-4h5.6L10.5,0z M6.3-12L6.3-12l2.3,6.4H4L6.3-12z"/>
	</g>
	<rect x="791.6" y="1919" class="st5" width="3" height="14"/>
	<text transform="matrix(1 0 0 1 776 1953)" class="st2 st3">Margins</text>
	<text transform="matrix(1 0 0 1 776 1971)" class="st4 st3">Leading and trailing margins on the left and right side of each symbol</text>
	<text transform="matrix(1 0 0 1 776 1989)" class="st4 st3">can be adjusted by modifying the width of the blue rectangles.</text>
	<text transform="matrix(1 0 0 1 776 2007)" class="st4 st3">Modifications are automatically applied proportionally to all</text>
	<text transform="matrix(1 0 0 1 776 2025)" class="st4 st3">scales and weights.</text>
	<g transform="matrix(1 0 0 1 1289 1933)">
		<path d="M2.8,3.1l1.5,1.5c0.8,0.8,1.8,0.8,2.7-0.2L17.3-6.7c0.4,0.3,0.8,0.3,1.3,0.2l1-0.2L20.3-6l0,0.5C20.2-5,20.4-4.5,20.8-4
			l0.8,0.8c0.5,0.5,1.2,0.5,1.6,0.1l3.3-3.3c0.5-0.5,0.5-1.1,0-1.6l-0.8-0.8c-0.5-0.5-0.9-0.7-1.4-0.6l-0.5,0.1l-0.7-0.7l0.3-1.1
			c0.1-0.6,0-1-0.6-1.6l-2.4-2.4c-3.5-3.5-8.1-3.4-11.2-0.3c-0.4,0.4-0.5,1-0.2,1.4c0.2,0.4,0.7,0.6,1.4,0.4c1.5-0.4,3-0.3,4.5,0.7
			l-0.6,1.6c-0.2,0.6-0.2,1.1,0,1.5L3,0.4C2.1,1.3,2,2.3,2.8,3.1z M10.7-15.1c2.7-2,6-1.7,8.4,0.7l2.6,2.6c0.2,0.2,0.3,0.4,0.2,0.7
			l-0.4,1.6L23.1-8L24-8c0.3,0,0.4,0,0.6,0.2l0.6,0.6l-2.8,2.7l-0.6-0.6c-0.2-0.2-0.2-0.3-0.2-0.6l0.1-1l-1.6-1.6l-1.6,0.3
			c-0.3,0.1-0.4,0.1-0.7-0.2l-2.2-2.2c-0.2-0.2-0.3-0.4-0.1-0.7l0.9-2.3c-1.6-1.5-3.7-2.4-5.8-1.7c-0.1,0-0.2,0-0.2,0
			C10.6-15,10.6-15.1,10.7-15.1z M4.1,2.4c-0.5-0.5-0.3-0.8,0-1.1l11-10.1l1.2,1.2L6.2,3.3c-0.3,0.3-0.7,0.4-1.1,0L4.1,2.4z"/>
	</g>
	<text transform="matrix(1 0 0 1 1289 1953)" class="st2 st3">Exporting</text>
	<text transform="matrix(1 0 0 1 1289 1971)" class="st4 st3">Symbols should be outlined when exporting to ensure the</text>
	<text transform="matrix(1 0 0 1 1289 1989)" class="st4 st3">design is preserved when submitting to Xcode.</text>
	<text id="template-version" transform="matrix(1 0 0 1 2958.8496 1933)" class="st4 st3">Template v.1.0</text>
	<text transform="matrix(1 0 0 1 2918.6074 1951)" class="st4 st3">Generated from folder</text>
	<text transform="matrix(1 0 0 1 2921.9238 1969)" class="st4 st3">Typeset at 100 points</text>
	<text transform="matrix(1 0 0 1 263 726)" class="st4 st3">Small</text>
	<text transform="matrix(1 0 0 1 263 1156)" class="st4 st3">Medium</text>
	<text transform="matrix(1 0 0 1 263 1586)" class="st4 st3">Large</text>
</g>
<g id="Guides">
	<g id="H-reference" transform="matrix(1 0 0 1 339 696)">
		<path class="st6" d="M54.9,0h2.7L30.6-70.5h-2.5L1,0h2.7l9.3-24.5h32.8L54.9,0z M29.2-67.1h0.2l15.4,40.4h-31L29.2-67.1z"/>
	</g>
	<line id="Baseline-S" class="st7" x1="263" y1="696" x2="3036" y2="696"/>
	<line id="Capline-S" class="st7" x1="263" y1="625.5" x2="3036" y2="625.5"/>
	<g id="H-reference_1_" transform="matrix(1 0 0 1 339 1126)">
		<path class="st6" d="M54.9,0h2.7L30.6-70.5h-2.5L1,0h2.7l9.3-24.5h32.8L54.9,0z M29.2-67.1h0.2l15.4,40.4h-31L29.2-67.1z"/>
	</g>
	<line id="Baseline-M" class="st7" x1="263" y1="1126" x2="3036" y2="1126"/>
	<line id="Capline-M" class="st7" x1="263" y1="1055.5" x2="3036" y2="1055.5"/>
	<g id="H-reference_2_" transform="matrix(1 0 0 1 339 1556)">
		<path class="st6" d="M54.9,0h2.7L30.6-70.5h-2.5L1,0h2.7l9.3-24.5h32.8L54.9,0z M29.2-67.1h0.2l15.4,40.4h-31L29.2-67.1z"/>
	</g>
	<line id="Baseline-L" class="st7" x1="263" y1="1556" x2="3036" y2="1556"/>
	<line id="Capline-L" class="st7" x1="263" y1="1485.5" x2="3036" y2="1485.5"/>
	<rect id="left-margin" x="1381.3" y="1030.8" class="st5" width="12.5" height="119.3"/>
	<rect id="right-margin" x="1505.9" y="1030.8" class="st5" width="12.5" height="119.3"/>
</g>
<g id="Symbols">
	<g id="Black-L" transform="matrix(1 0 0 1 2841.94 1556)">
		<path d="M40,26.5h103.6c14.6,0,23.2-8.6,23.2-23.8V-64c0-15.2-8.7-23.8-23.9-23.8h-53c-5.1,0-8.3-1.2-12.8-4.5l-2.9-2.1
			c-5.3-4-8.7-5.3-16.6-5.3H39.4c-14.2,0-23.3,8.8-23.3,24.2V2.7C16.1,17.9,24.8,26.5,40,26.5z M36.3-72.8c0-4.2,2.7-6.7,6.9-6.7
			h8.8c5.1,0,8.3,1.1,12.7,4.5l2.9,2.1c5.3,4,8.8,5.3,16.7,5.3h55.8c4.2,0,6.4,1.9,6.4,6.4v3.7H36.3V-72.8z M42.7,6.3
			c-4.2,0-6.3-1.9-6.3-6.4v-41.3h110.3v41.3c0,4.5-2.1,6.4-6.4,6.4H42.7z"/>
	</g>
	<g id="Heavy-L" transform="matrix(1 0 0 1 2546.11 1556)">
		<path d="M38.8,25.5h104.4c13.8,0,21.9-8.1,21.9-22.6v-66.6c0-14.6-8.1-22.7-22.8-22.7h-55c-5,0-8.1-1.1-12.2-4.3L72-93.1
			c-5-3.9-8.4-5.1-15.8-5.1H37.8c-13.4,0-21.8,8.2-21.8,22.7V2.9C16.1,17.4,24.2,25.5,38.8,25.5z M33.6-73.3c0-4.7,2.8-7.4,7.6-7.4
			h10.2c5,0,8,1.1,12.2,4.3l3,2.4c5,3.9,8.4,5.2,15.9,5.2h57.7c4.8,0,7.4,2.3,7.4,7.4v4h-114V-73.3z M40.9,8c-4.8,0-7.3-2.3-7.3-7.4
			v-43.9h114V0.6c0,5.1-2.6,7.4-7.4,7.4H40.9z"/>
	</g>
	<g id="Bold-L" transform="matrix(1 0 0 1 2250.35 1556)">
		<path d="M37.5,24.4h105.3c12.9,0,20.4-7.5,20.4-21.3v-66.6c0-13.8-7.6-21.3-21.4-21.3H84.4c-4.9,0-7.7-1.1-11.6-4.2l-3.3-2.7
			c-4.7-3.8-8-5-15-5H36c-12.5,0-20,7.4-20,21V3.1C16.1,16.9,23.6,24.4,37.5,24.4z M30.5-73.9c0-5.4,3-8.3,8.3-8.3h11.8
			c4.8,0,7.6,1,11.5,4.2l3.3,2.7c4.7,3.7,8.1,4.9,15.1,4.9h59.7c5.5,0,8.4,2.8,8.4,8.5v4.2H30.5V-73.9z M39,9.9
			c-5.5,0-8.4-2.7-8.4-8.5v-47h118.2v47c0,5.8-3,8.5-8.4,8.5H39z"/>
	</g>
	<g id="Semibold-L" transform="matrix(1 0 0 1 1954.3 1556)">
		<path d="M36.6,23.6h105.9c12.3,0,19.3-7.1,19.3-20.4v-66.5c0-13.3-7.1-20.4-20.6-20.4H82.4c-4.8,0-7.5-1-11.1-4l-3.4-2.8
			c-4.5-3.7-7.7-4.9-14.5-4.9H34.8c-11.8,0-18.7,6.8-18.7,19.9V3.2C16.1,16.6,23.2,23.6,36.6,23.6z M28.4-74.3
			c0-5.8,3.1-8.8,8.8-8.8h12.9c4.7,0,7.3,1,11,4.1l3.5,2.8c4.4,3.6,7.7,4.8,14.5,4.8h61.1c5.9,0,9.2,3,9.2,9.3v4.4H28.4V-74.3z
			 M37.6,11.3c-6,0-9.2-3.1-9.2-9.3v-49h121.1V2c0,6.2-3.3,9.3-9.2,9.3H37.6z"/>
	</g>
	<g id="Medium-L" transform="matrix(1 0 0 1 1658.1 1556)">
		<path d="M35.9,23h106.3c11.8,0,18.6-6.8,18.6-19.7v-66.4c0-12.9-6.8-19.7-19.9-19.7H80.9c-4.7,0-7.3-1-10.8-3.9l-3.6-3
			c-4.3-3.7-7.4-4.8-14-4.8H33.9c-11.3,0-17.8,6.4-17.8,19V3.3C16.1,16.3,22.9,23,35.9,23z M26.8-74.6c0-6.1,3.2-9.2,9.2-9.2h13.8
			c4.6,0,7.2,1,10.7,4l3.6,3c4.2,3.6,7.5,4.7,14.1,4.7h62.2c6.2,0,9.8,3.3,9.8,9.9v4.5H26.8V-74.6z M36.6,12.3
			c-6.3,0-9.8-3.3-9.8-9.9v-50.6h123.3V2.4c0,6.5-3.5,9.8-9.8,9.8H36.6z"/>
	</g>
	<g id="Regular-L" transform="matrix(1 0 0 1 1362.05 1556)">
		<circle cx="87.8" cy="-35.8" r="26.2"/>
	</g>
	<g id="Light-L" transform="matrix(1 0 0 1 1066.15 1556)">
		<path d="M34,21.4h106.8c10.9,0,17-6.2,17-17.9v-66.5c0-11.7-6.1-17.9-18-17.9H78c-5,0-7.5-0.8-10.9-3.9l-3.5-3.1
			c-4.1-3.7-6.8-4.6-13.2-4.6H31.7C21.5-92.4,16.1-87,16.1-76V3.6C16.1,15.4,22.2,21.4,34,21.4z M22.7-75.6
			c0-6.9,3.4-10.3,10.2-10.3h16c4.8,0,7.2,0.9,10.7,4.1l3.6,3.1c3.9,3.5,6.9,4.6,13.3,4.6h63.3c7.3,0,11.5,4,11.5,11.6v6H22.7V-75.6
			z M34.2,14.8c-7.5,0-11.5-4-11.5-11.6v-53.5h128.6V3.3c0,7.6-4.2,11.5-11.5,11.5H34.2z"/>
	</g>
	<g id="Thin-L" transform="matrix(1 0 0 1 770.509 1556)">
		<path d="M32.7,20.4h106.7c10.7,0,16.4-5.9,16.4-16.6v-66.6c0-10.7-5.7-16.6-16.6-16.6H76.7c-5.6,0-8.1-0.7-11.6-4l-3.3-3.1
			c-4.1-3.9-6.4-4.7-12.8-4.7H30.3c-9.5,0-14.3,4.8-14.3,14.4V3.8C16.1,14.6,21.8,20.4,32.7,20.4z M20-76.3c0-7.4,3.6-11,10.9-11
			h17.4c5.4,0,7.6,0.7,11.3,4.2l3.3,3.1c3.7,3.5,6.5,4.5,13.1,4.5h63c8.1,0,12.8,4.4,12.8,12.8v7.6H20V-76.3z M32.8,16.4
			C24.4,16.4,20,12,20,3.6v-54.7h131.9V3.6c0,8.4-4.7,12.8-12.8,12.8H32.8z"/>
	</g>
	<g id="Ultralight-L" transform="matrix(1 0 0 1 474.36 1556)">
		<path d="M32,19.8h106.6c10.5,0,16.1-5.7,16.1-15.9v-66.6c0-10.2-5.5-15.9-15.9-15.9H76.1c-6,0-8.3-0.6-11.9-4.1L61-85.8
			c-4.1-4-6.2-4.6-12.7-4.6H29.6c-9.2,0-13.6,4.4-13.6,13.3v81C16.1,14.3,21.6,19.8,32,19.8z M18.6-76.7c0-7.7,3.7-11.3,11.3-11.3
			H48c5.6,0,7.8,0.7,11.7,4.4l3.2,3c3.7,3.6,6.3,4.5,12.9,4.5h62.8c8.6,0,13.5,4.6,13.5,13.5v8.5H18.6V-76.7z M32.1,17.2
			c-8.9,0-13.5-4.6-13.5-13.5v-55.3h133.5V3.7c0,8.9-4.9,13.5-13.5,13.5H32.1z"/>
	</g>
	<g id="Black-M" transform="matrix(1 0 0 1 2861.82 1126)">
		<path d="M32,13.6h79.2c12.3,0,19.5-7.3,19.5-19.5v-51.8c0-12.3-7.3-19.5-19.5-19.5H72.7c-4.4,0-7.1-1-11-3.8l-1.9-1.4
			c-4.4-3.3-7.1-4.3-13.7-4.3h-14c-11.9,0-19.7,7.5-19.7,19.9V-6C12.5,6.3,19.7,13.6,32,13.6z M30.8-64c0-2.7,1.9-4.5,4.8-4.5h5.5
			c4.4,0,6.9,0.9,10.9,3.8l1.8,1.4C58.3-60,61-59,67.6-59h40.6c2.8,0,4.2,1.1,4.2,4.2v3.3H30.8V-64z M34.9-4.7
			c-2.8,0-4.2-1.1-4.2-4.2v-28.9h81.7v28.9c0,3.1-1.4,4.2-4.2,4.2H34.9z"/>
	</g>
	<g id="Heavy-M" transform="matrix(1 0 0 1 2565.81 1126)">
		<path d="M31,12.6h80c11.5,0,18.3-6.7,18.3-18.5v-51.7c0-11.8-6.8-18.5-18.6-18.5H70.1c-4.2,0-6.6-0.9-10.2-3.6l-2.1-1.6
			c-4.2-3.1-6.8-4.2-13-4.2H30.7c-11.1,0-18.2,6.9-18.2,18.7v60.8C12.5,5.9,19.2,12.6,31,12.6z M28.3-64.4c0-3.2,2.1-5.2,5.4-5.2
			h6.8c4.2,0,6.5,0.9,10.2,3.6l2.1,1.6c4.2,3.2,6.9,4.2,13,4.2h42.8c3.3,0,5,1.5,5,5v3.2H28.3V-64.4z M33.3-3.2c-3.3,0-5-1.5-5-5
			v-31.5h85.2v31.5c0,3.5-1.7,5-5,5H33.3z"/>
	</g>
	<g id="Bold-M" transform="matrix(1 0 0 1 2269.93 1126)">
		<path d="M29.9,11.7h81.1c10.5,0,16.7-6.2,16.7-17.3v-51.6c0-11.1-6.2-17.3-17.4-17.3h-43c-3.9,0-6.2-0.9-9.4-3.3l-2.4-1.9
			c-3.9-3-6.4-4-12.2-4H29.1c-10.3,0-16.6,6.2-16.6,17.3v60.8C12.5,5.5,18.7,11.7,29.9,11.7z M25.5-64.8c0-3.8,2.2-5.9,6-5.9h8.2
			c3.8,0,6.1,0.9,9.3,3.4l2.4,1.9c3.9,3,6.5,4,12.2,4h45c3.8,0,5.9,1.9,5.9,5.9v3.1H25.5V-64.8z M31.4-1.4c-3.9,0-5.9-1.9-5.9-5.9
			v-34.6h89.1v34.6c0,4.1-2.1,5.9-5.9,5.9H31.4z"/>
	</g>
	<g id="Semibold-M" transform="matrix(1 0 0 1 1973.78 1126)">
		<path d="M29.1,11h81.7c9.9,0,15.7-5.8,15.7-16.6v-51.5c0-10.7-5.8-16.6-16.7-16.6H65.2c-3.7,0-5.9-0.8-8.7-3.1l-2.6-2.1
			c-3.6-2.9-6.2-3.8-11.5-3.8H27.9c-9.6,0-15.4,5.7-15.4,16.4v60.8C12.5,5.2,18.3,11,29.1,11z M23.6-65.1c0-4.2,2.3-6.4,6.4-6.4h9.2
			c3.6,0,5.8,0.8,8.7,3.2l2.6,2.1c3.6,2.8,6.2,3.8,11.6,3.8h46.6c4.2,0,6.5,2.1,6.5,6.6v3H23.6V-65.1z M30.1-0.2
			c-4.2,0-6.5-2.1-6.5-6.6v-36.6h91.7v36.7c0,4.4-2.3,6.5-6.5,6.5H30.1z"/>
	</g>
	<g id="Medium-M" transform="matrix(1 0 0 1 1677.49 1126)">
		<path d="M28.5,10.4h82.3c9.4,0,14.9-5.5,14.9-15.9v-51.5c0-10.4-5.5-15.9-16.1-15.9H63.7c-3.5,0-5.6-0.8-8.3-3.1l-2.8-2.2
			c-3.4-2.8-6-3.8-11.1-3.8H27.1c-9.2,0-14.6,5.4-14.6,15.7v60.8C12.5,5,18,10.4,28.5,10.4z M22.2-65.4c0-4.5,2.5-6.8,6.8-6.8h9.9
			c3.5,0,5.5,0.8,8.3,3.1l2.8,2.3c3.4,2.7,6.1,3.7,11.2,3.7H109c4.4,0,6.9,2.3,6.9,7v3H22.2V-65.4z M29.2,0.7c-4.5,0-7-2.3-7-7.1
			v-38.2h93.8v38.3c0,4.7-2.5,7-6.9,7H29.2z"/>
	</g>
	<g id="Regular-M" transform="matrix(1 0 0 1 1381.34 1126)">
		<circle cx="68.5" cy="-35.4" r="20.3"/>
	</g>
	<g id="Light-M" transform="matrix(1 0 0 1 1085.36 1126)">
		<path d="M26.9,9h82.8c8.6,0,13.4-4.9,13.4-14.3v-51.5c0-9.4-4.9-14.3-14.4-14.3H60.9c-3.7,0-5.7-0.7-8.2-3l-2.8-2.4
			c-3.2-2.8-5.4-3.6-10.3-3.6H25c-8.1,0-12.5,4.4-12.5,13.4v61.4C12.5,4.2,17.3,9,26.9,9z M18.5-66.2c0-5.2,2.6-7.8,7.7-7.8H38
			c3.6,0,5.5,0.7,8.1,3.1l2.8,2.4c3.1,2.7,5.5,3.6,10.4,3.6h49.2c5.4,0,8.5,2.9,8.5,8.5v4.1H18.5V-66.2z M27,3
			c-5.5,0-8.4-2.9-8.4-8.5v-41.1h98.6v41.1c0,5.6-3.1,8.5-8.5,8.5H27z"/>
	</g>
	<g id="Thin-M" transform="matrix(1 0 0 1 789.601 1126)">
		<path d="M25.6,8.1h82.7c8.3,0,12.9-4.6,12.9-13.1v-51.6c0-8.5-4.5-13.1-13.2-13.1H59.7c-4.2,0-6.1-0.6-8.8-3.1l-2.6-2.4
			c-3.2-3-5.1-3.6-10.1-3.6H23.8c-7.5,0-11.3,3.8-11.3,11.6V-5C12.5,3.6,17,8.1,25.6,8.1z M16.1-66.9c0-5.7,2.8-8.4,8.3-8.4h13.1
			c4.1,0,5.8,0.6,8.6,3.3l2.6,2.4c2.9,2.7,5.1,3.5,10.2,3.5h48.9c6.1,0,9.6,3.3,9.6,9.7v5.6H16.1V-66.9z M25.7,4.4
			c-6.3,0-9.7-3.3-9.7-9.7v-42.1h101.5v42.1c0,6.3-3.5,9.7-9.6,9.7H25.7z"/>
	</g>
	<g id="Ultralight-M" transform="matrix(1 0 0 1 493.378 1126)">
		<path d="M25,7.6h82.6c8.2,0,12.6-4.4,12.6-12.5v-51.6c0-8.1-4.4-12.5-12.5-12.5H59.1c-4.5,0-6.3-0.5-9.1-3.1l-2.4-2.4
			c-3.2-3.1-4.9-3.6-9.9-3.6H23.2c-7.2,0-10.7,3.5-10.7,10.6V-5C12.5,3.2,16.8,7.6,25,7.6z M14.8-67.3c0-5.9,2.8-8.6,8.6-8.6h13.8
			c4.2,0,6,0.5,8.9,3.4l2.5,2.3c2.8,2.7,5,3.5,10.1,3.5h48.7c6.5,0,10.3,3.5,10.3,10.3v6.3h-103V-67.3z M25.1,5.2
			c-6.7,0-10.3-3.5-10.3-10.3v-42.7h103v42.7c0,6.7-3.8,10.3-10.3,10.3H25.1z"/>
	</g>
	<g id="Black-S" transform="matrix(1 0 0 1 2877.35 696)">
		<path d="M25,2.9h62.1c9.6,0,15.2-5.7,15.2-15.2v-40.6c0-9.6-5.7-15.2-15.2-15.2H56.7c-3.4,0-5.5-0.7-8.5-2.9l-1.5-1.1
			c-3.5-2.5-5.6-3.4-10.7-3.4H25.1c-9.3,0-15.3,5.9-15.3,15.5v47.7C9.8-2.7,15.4,2.9,25,2.9z M23.9-57.8c0-2.1,1.5-3.6,3.8-3.6h4.4
			c3.4,0,5.4,0.7,8.5,2.9l1.5,1.1c3.5,2.6,5.6,3.4,10.7,3.4h32c2.2,0,3.3,0.9,3.3,3.3v2.5H23.9V-57.8z M27.2-11.2
			c-2.2,0-3.3-0.9-3.3-3.3v-22.8h64.3v22.8c0,2.4-1.1,3.3-3.3,3.3H27.2z"/>
	</g>
	<g id="Heavy-S" transform="matrix(1 0 0 1 2581.12 696)">
		<path d="M24.4,2.3h62.8c8.9,0,14.2-5.3,14.2-14.6v-40.5c0-9.3-5.3-14.6-14.6-14.6H54.9c-3.2,0-5.2-0.7-7.9-2.8l-1.7-1.3
			c-3.2-2.4-5.3-3.2-10.2-3.2h-11c-8.7,0-14.3,5.4-14.3,14.7v47.6C9.8-3,15.1,2.3,24.4,2.3z M22.3-58c0-2.5,1.6-4.1,4.2-4.1h5.3
			c3.2,0,5.1,0.7,7.9,2.8l1.7,1.3c3.3,2.5,5.4,3.3,10.2,3.3h33.6c2.5,0,3.9,1.1,3.9,3.9v2.3H22.3V-58z M26.1-10.2
			c-2.5,0-3.8-1.1-3.8-3.9v-24.8h66.7V-14c0,2.7-1.3,3.9-3.9,3.9H26.1z"/>
	</g>
	<g id="Bold-S" transform="matrix(1 0 0 1 2284.92 696)">
		<path d="M23.6,1.7h63.5c8.3,0,13.2-4.9,13.2-13.8v-40.4c0-8.9-4.9-13.8-13.9-13.8H52.8c-2.9,0-4.7-0.7-7.2-2.6l-1.9-1.5
			c-3-2.3-5.1-3.1-9.5-3.1H22.9c-8.1,0-13.2,4.9-13.2,13.9v47.5C9.8-3.2,14.7,1.7,23.6,1.7z M20.4-58.3c0-2.9,1.8-4.5,4.6-4.5h6.2
			c2.9,0,4.7,0.7,7.2,2.6l2,1.5c3,2.3,5.1,3.1,9.6,3.1h35.4c2.9,0,4.4,1.4,4.4,4.4v2.1H20.4V-58.3z M24.8-8.9
			c-2.9,0-4.4-1.4-4.4-4.5v-27h69.4v27c0,3-1.6,4.4-4.4,4.4H24.8z"/>
	</g>
	<g id="Semibold-S" transform="matrix(1 0 0 1 1988.58 696)">
		<path d="M23.1,1.2h64.1C95,1.2,99.6-3.4,99.6-12v-40.4c0-8.6-4.6-13.2-13.4-13.2H51.3c-2.7,0-4.4-0.7-6.7-2.4l-2.1-1.7
			c-2.8-2.2-4.9-3-9.1-3H22.1c-7.7,0-12.4,4.6-12.4,13.3V-12C9.8-3.4,14.4,1.2,23.1,1.2z M19.1-58.5c0-3.2,1.8-4.9,4.9-4.9h6.9
			c2.7,0,4.4,0.6,6.6,2.4l2.1,1.7c2.8,2.2,4.9,3,9.1,3h36.6c3.1,0,4.8,1.6,4.8,4.9v2H19.1V-58.5z M23.9-8.1c-3.1,0-4.8-1.6-4.8-4.9
			v-28.5h71.2v28.6c0,3.2-1.7,4.8-4.8,4.8H23.9z"/>
	</g>
	<g id="Medium-S" transform="matrix(1 0 0 1 1692.16 696)">
		<path d="M22.7,0.8h64.5C94.6,0.8,99-3.5,99-12v-40.3c0-8.4-4.4-12.8-12.9-12.8H50.2c-2.6,0-4.2-0.7-6.3-2.3l-2.2-1.8
			c-2.7-2.1-4.8-2.9-8.8-2.9H21.5c-7.3,0-11.8,4.3-11.8,12.8V-12C9.8-3.5,14.2,0.8,22.7,0.8z M18.1-58.7c0-3.3,1.9-5.1,5.2-5.1h7.4
			c2.6,0,4.2,0.7,6.3,2.3l2.2,1.8c2.7,2.1,4.8,2.9,8.8,2.9h37.6c3.3,0,5.1,1.7,5.1,5.2v1.9H18.1V-58.7z M23.2-7.5
			c-3.3,0-5.1-1.8-5.1-5.2v-29.6h72.7v29.7c0,3.4-1.9,5.2-5.1,5.2H23.2z"/>
	</g>
	<g id="Regular-S" transform="matrix(1 0 0 1 1395.82 696)">
		<circle cx="54" cy="-35.8" r="15.9"/>
	</g>
	<g id="Light-S" transform="matrix(1 0 0 1 1099.74 696)">
		<path d="M21.4-0.3h64.9C93.1-0.3,97-4.2,97-11.8v-40.3c0-7.6-3.9-11.5-11.6-11.5H48c-2.8,0-4.3-0.6-6.2-2.3l-2.3-1.9
			c-2.5-2.2-4.3-2.8-8.2-2.8H20c-6.5,0-10.2,3.6-10.2,11v47.9C9.8-4.2,13.7-0.3,21.4-0.3z M15.2-59.3c0-3.9,2.1-5.9,5.9-5.9H30
			c2.7,0,4.2,0.6,6.2,2.3l2.2,2c2.4,2.1,4.4,2.8,8.3,2.8h38.6c4,0,6.3,2.1,6.3,6.3v2.7H15.2V-59.3z M21.5-5.7
			c-4.1,0-6.3-2.1-6.3-6.3v-31.9h76.4V-12c0,4.2-2.3,6.3-6.3,6.3H21.5z"/>
	</g>
	<g id="Thin-S" transform="matrix(1 0 0 1 803.883 696)">
		<path d="M20.3-1.1h64.8c6.5,0,10.2-3.7,10.2-10.5V-52c0-6.8-3.6-10.5-10.5-10.5H47c-3.2,0-4.7-0.5-6.8-2.4l-2.1-1.9
			c-2.5-2.3-4.1-2.8-8-2.8H18.9c-6,0-9.1,3.1-9.1,9.4v48.6C9.8-4.7,13.4-1.1,20.3-1.1z M13.1-59.9c0-4.3,2.1-6.4,6.4-6.4h10.1
			c3.1,0,4.5,0.5,6.6,2.5l2.1,1.9c2.3,2.1,4.1,2.8,8.1,2.8h38.3c4.6,0,7.3,2.5,7.3,7.4v4H13.1V-59.9z M20.4-4.4
			c-4.8,0-7.3-2.5-7.3-7.4v-32.8H92v32.8c0,4.8-2.7,7.3-7.3,7.3H20.4z"/>
	</g>
	<g id="Ultralight-S" transform="matrix(1 0 0 1 507.612 696)">
		<path d="M19.8-1.6h64.7c6.4,0,9.9-3.6,9.9-10V-52c0-6.4-3.5-10-10-10H46.5c-3.4,0-4.9-0.4-7-2.4l-2-1.9C35-68.6,33.6-69,29.7-69
			H18.4c-5.8,0-8.6,2.8-8.6,8.5v49C9.8-5,13.2-1.6,19.8-1.6z M12-60.3c0-4.5,2.2-6.7,6.7-6.7h10.6c3.3,0,4.6,0.4,6.9,2.6l2,1.9
			c2.3,2.1,4,2.8,8,2.8h38.2c5,0,7.9,2.7,7.9,7.9v4.7H12V-60.3z M19.9-3.8c-5.2,0-7.9-2.7-7.9-7.9v-33.3h80.3v33.3
			c0,5.2-2.9,7.9-7.9,7.9H19.9z"/>
	</g>
</g>
</svg>
